<?xml version="1.0" standalone="no"?>
<!DOCTYPE svg PUBLIC "-//W3C//DTD SVG 20010904//EN"
 "http://www.w3.org/TR/2001/REC-SVG-20010904/DTD/svg10.dtd">
<svg version="1.0" xmlns="http://www.w3.org/2000/svg"
 width="536.000000pt" height="536.000000pt" viewBox="0 0 536.000000 536.000000"
 preserveAspectRatio="xMidYMid meet">
<metadata>
Created by potrace 1.11, written by Peter Selinger 2001-2013
</metadata>
<g transform="translate(0.000000,536.000000) scale(0.100000,-0.100000)"
fill="#000000" stroke="none">
<path d="M2604 5005 c-20 -15 -89 -21 -80 -6 7 10 -36 2 -164 -32 -135 -36
-167 -49 -280 -112 -92 -50 -106 -55 -168 -57 l-67 -1 55 -6 54 -6 -44 -34
c-92 -71 -330 -295 -330 -310 0 -4 -15 -25 -33 -47 -156 -188 -306 -466 -370
-689 -8 -27 -24 -81 -35 -120 -21 -71 -26 -92 -88 -385 -50 -234 -69 -342 -94
-525 -12 -88 -26 -182 -30 -210 -17 -110 -3 -519 24 -695 5 -38 29 -137 36
-155 5 -11 16 -56 25 -100 9 -44 18 -87 20 -95 2 -8 4 -23 4 -32 2 -38 21 -16
21 24 l0 42 20 -22 c11 -12 20 -27 20 -34 0 -7 9 -30 20 -51 11 -20 20 -46 20
-56 0 -11 5 -23 10 -26 5 -3 10 -13 10 -22 0 -8 7 -30 16 -48 13 -29 14 -37 1
-68 -11 -25 -23 -36 -43 -40 -16 -3 -47 -11 -69 -17 -22 -6 -65 -15 -97 -20
-70 -9 -73 -12 -109 -68 -24 -38 -29 -57 -29 -109 0 -35 -7 -98 -16 -140 -8
-41 -16 -110 -16 -152 0 -144 12 -373 22 -391 5 -10 7 -39 4 -64 -7 -45 -8
-46 -43 -46 -41 0 -94 -29 -111 -59 l-11 -21 2031 0 2031 0 17 30 c9 16 21 30
25 30 5 0 5 4 2 10 -3 5 -1 19 5 31 9 16 18 19 38 15 l27 -6 -22 16 c-13 9
-23 24 -23 34 0 16 3 17 25 7 17 -8 25 -20 25 -37 l1 -25 14 25 c10 18 10 26
2 29 -7 2 -18 10 -24 19 -10 12 -13 12 -13 2 0 -9 -6 -8 -20 5 -26 24 -26 93
-1 199 19 80 37 106 73 106 10 0 18 5 18 10 0 6 -10 10 -23 10 -13 0 -31 6
-40 13 -15 11 -15 18 -2 80 17 78 12 94 -42 141 -19 16 -33 36 -32 45 3 31 -1
39 -21 44 -13 3 -20 0 -20 -9 0 -19 -7 -18 -32 6 -24 22 -18 40 7 20 9 -7 15
-8 15 -2 0 6 -6 12 -12 15 -10 4 -10 7 -1 18 7 7 13 20 13 28 0 11 -4 10 -20
-4 -19 -17 -20 -17 -14 -2 4 12 -2 24 -20 38 -27 21 -34 53 -15 65 6 3 16 1
22 -5 6 -6 24 -11 39 -11 25 0 28 3 22 24 -5 20 -1 24 23 28 53 10 131 9 138
-2 20 -32 74 36 61 78 -9 28 31 37 47 12 10 -18 13 -18 29 -4 14 13 15 20 5
35 -10 16 -9 21 2 29 12 7 12 11 2 24 -18 21 -6 62 19 69 25 6 27 37 2 37 -10
0 -24 6 -30 12 -20 20 -136 17 -160 -5 -18 -17 -29 -17 -112 -8 -96 11 -109
18 -130 69 -8 18 -15 21 -34 16 -21 -5 -26 -2 -30 18 -2 12 -4 32 -4 43 0 11
-5 52 -12 91 -17 92 -14 101 44 99 38 -2 46 1 46 16 0 13 -5 17 -17 12 -16 -6
-16 -5 -4 11 13 15 24 17 70 11 31 -4 61 -11 68 -17 8 -6 19 -6 32 1 11 6 31
11 44 11 14 0 30 7 37 15 17 20 33 19 55 -5 14 -16 16 -23 7 -32 -21 -21 -13
-38 17 -38 44 0 71 -40 71 -105 0 -65 16 -80 80 -80 35 0 46 3 42 13 -3 10
-16 11 -45 7 l-40 -7 24 41 c21 38 26 41 66 41 24 0 43 -4 43 -9 0 -5 13 4 30
20 21 22 34 28 47 22 16 -7 43 -8 96 -4 11 1 17 9 17 24 0 15 -6 23 -17 24
-10 0 -43 3 -73 6 -55 6 -83 -4 -75 -26 3 -7 -2 -21 -10 -31 -16 -21 -34 -13
-39 16 -1 8 -16 29 -34 46 -34 33 -35 52 -2 52 14 0 20 -9 23 -32 l4 -33 1 33
c2 24 7 32 20 32 10 0 23 5 30 12 9 9 12 9 12 0 0 -7 14 -11 35 -10 35 1 45
17 27 44 -11 17 -172 15 -172 -2 0 -8 -4 -14 -10 -14 -5 0 -10 7 -10 15 0 10
-10 13 -37 11 -21 -2 -47 1 -58 7 -28 15 -71 10 -114 -12 -60 -31 -115 -45
-119 -32 -2 6 -22 11 -45 11 -50 1 -116 15 -129 28 -13 13 0 52 17 52 10 0 12
9 8 33 -5 30 0 38 38 71 37 32 45 35 48 20 2 -10 -2 -20 -8 -22 -13 -4 -15
-32 -2 -32 5 0 11 7 15 15 3 8 12 15 21 15 13 0 13 3 3 22 -7 13 -16 25 -19
28 -3 3 -8 12 -12 20 -4 8 -14 25 -23 37 -15 21 -14 22 17 38 40 21 107 21
179 0 30 -9 80 -17 110 -18 30 -2 60 -6 67 -10 7 -4 24 -5 38 -1 15 4 25 2 25
-5 0 -6 11 -11 25 -11 21 0 25 5 25 29 0 33 14 41 70 41 21 0 41 4 44 8 3 5
28 8 56 8 29 -1 49 3 46 9 -4 13 -109 7 -117 -7 -12 -19 -35 -1 -51 41 l-16
41 33 0 c18 0 38 7 45 15 11 13 9 19 -10 35 -13 11 -27 20 -32 20 -5 0 -28 19
-51 43 -28 28 -43 52 -44 71 -2 40 -38 67 -80 61 -19 -3 -33 0 -33 5 0 6 -9
10 -20 10 -26 0 -70 21 -70 33 0 5 -9 -2 -20 -15 -28 -36 -92 -45 -130 -18
-15 11 -38 20 -49 20 -12 0 -21 4 -21 10 0 5 -25 9 -55 8 -35 -1 -52 -5 -48
-12 4 -6 -1 -5 -10 2 -14 12 -20 10 -44 -12 -22 -20 -29 -23 -33 -11 -3 10 -9
11 -20 5 -22 -14 -30 -12 -30 6 0 27 -25 9 -28 -20 -5 -36 9 -51 69 -72 40
-15 49 -22 47 -39 -3 -17 -13 -21 -63 -26 l-60 -6 76 0 c76 0 99 -6 99 -24 0
-5 8 -21 17 -35 l17 -26 8 23 c6 15 12 19 19 12 11 -11 2 -43 -12 -43 -5 0 -9
-8 -9 -18 0 -11 -9 -27 -20 -37 -24 -22 -26 -41 -4 -49 11 -4 14 -13 11 -28
-4 -13 2 -32 13 -47 30 -43 27 -54 -22 -105 -25 -27 -44 -55 -41 -62 7 -18 -6
-18 -51 1 -30 13 -36 20 -36 46 0 30 1 30 43 29 70 -3 77 -1 77 20 0 20 -21
26 -77 21 -13 -1 -23 3 -23 10 0 9 -3 9 -14 0 -8 -7 -17 -8 -20 -3 -3 6 4 12
15 15 27 7 22 48 -8 62 -24 10 -39 35 -23 35 16 0 11 40 -5 46 -10 4 -13 14
-8 32 4 17 2 23 -5 18 -12 -7 -15 1 -31 84 -5 25 -17 74 -26 110 -18 72 -46
229 -75 425 -11 72 -24 155 -29 185 -18 104 -22 158 -11 165 15 9 12 28 -4 22
-9 -4 -16 5 -20 26 -27 142 -80 354 -101 402 -7 17 -29 76 -49 132 -37 109
-94 252 -106 268 -24 32 -80 147 -80 165 0 11 -4 20 -9 20 -10 0 -91 107 -91
120 0 5 -8 15 -18 22 -10 7 -37 40 -59 73 -23 33 -56 75 -73 94 -17 19 -33 43
-36 54 -2 11 -26 40 -54 66 -27 25 -50 54 -50 63 0 9 -27 36 -60 59 -33 23
-60 45 -60 48 0 4 -53 34 -117 67 -115 57 -120 59 -198 59 -70 0 -83 -3 -102
-22 -12 -13 -26 -23 -32 -23 -5 0 -28 21 -50 46 -49 56 -114 91 -195 104 -76
12 -69 13 -92 -5z m39 -12 c-7 -2 -19 -2 -25 0 -7 3 -2 5 12 5 14 0 19 -2 13
-5z m132 -581 c28 -8 61 -13 75 -13 36 3 101 4 131 2 36 -2 91 -53 82 -76 -5
-14 -3 -17 10 -12 9 3 16 3 14 -1 -1 -4 9 -19 22 -32 13 -14 20 -19 16 -11 -5
9 -4 12 3 7 7 -4 12 -16 12 -27 0 -12 7 -19 20 -19 11 0 23 -6 26 -14 3 -8 14
-16 25 -19 11 -3 19 -14 19 -25 0 -12 5 -24 12 -28 7 -4 8 -3 4 4 -4 7 -2 12
3 12 6 0 11 -12 11 -26 0 -21 3 -24 13 -15 10 8 19 7 32 -3 17 -12 18 -16 5
-32 -14 -17 -14 -18 3 -5 12 9 17 10 17 2 0 -7 5 -9 13 -5 6 4 3 -3 -8 -16
-17 -20 -18 -23 -2 -17 9 4 17 2 17 -4 0 -6 11 -20 25 -30 13 -11 22 -26 19
-34 -3 -7 3 -21 14 -31 12 -9 18 -24 14 -32 -3 -9 -1 -13 5 -9 18 11 43 -63
47 -138 1 -22 6 -50 10 -62 4 -12 3 -24 -3 -27 -5 -3 -7 -25 -4 -48 5 -30 3
-39 -6 -34 -6 4 -9 12 -6 17 4 5 1 9 -4 9 -14 0 -14 -23 0 -37 8 -8 7 -13 -2
-18 -8 -6 -10 -4 -4 5 5 8 4 11 -2 7 -6 -4 -9 -18 -8 -32 2 -14 -1 -25 -6 -25
-5 0 -9 -5 -9 -11 0 -6 8 -8 18 -5 14 5 17 -1 16 -37 0 -23 3 -50 8 -59 10
-20 1 -23 -21 -9 -15 10 -52 -20 -64 -52 -3 -9 -13 -13 -25 -10 -11 2 -23 0
-27 -6 -4 -8 -24 -9 -54 -5 -32 4 -56 2 -72 -7 -13 -7 -36 -12 -51 -11 -16 1
-28 -2 -28 -7 0 -8 -41 -17 -117 -26 -12 -2 -28 -7 -35 -11 -6 -4 -23 -9 -36
-10 -12 -2 -39 -17 -59 -34 -38 -34 -58 -33 -27 2 18 20 18 21 1 15 -10 -4
-23 -7 -28 -7 -5 0 -9 -5 -9 -12 0 -6 -15 -24 -32 -40 -30 -26 -31 -30 -15
-39 9 -6 17 -20 16 -32 0 -12 -3 -16 -6 -9 -2 6 -9 12 -15 12 -6 0 -8 -7 -4
-15 3 -8 1 -15 -4 -15 -15 0 -23 46 -11 68 18 34 13 50 -14 48 -14 0 -25 -5
-25 -10 0 -4 -7 -5 -16 -2 -9 4 -23 1 -30 -5 -8 -6 -14 -7 -14 -2 0 17 -35 8
-71 -19 -63 -47 -104 -61 -93 -33 4 9 -4 23 -17 34 -19 16 -22 22 -11 32 19
20 14 34 -6 16 -23 -21 -32 -21 -32 -3 0 9 -7 12 -21 9 -15 -4 -22 0 -26 16
-4 15 -11 20 -21 16 -8 -3 -26 2 -40 11 -28 19 -41 21 -124 23 -40 1 -57 5
-55 13 1 9 -15 11 -55 10 -32 -1 -58 1 -58 6 0 5 -6 9 -12 9 -7 0 -39 6 -70
12 -43 9 -56 16 -51 27 3 8 9 14 14 14 5 0 9 5 9 11 0 6 -9 9 -20 6 -25 -7
-38 12 -18 27 18 13 16 52 -6 98 -16 35 -36 144 -28 153 3 3 13 -2 22 -10 16
-14 18 -14 24 0 3 9 2 13 -4 10 -16 -10 -43 42 -36 71 5 19 3 24 -6 19 -7 -3
-3 1 8 10 18 13 20 22 14 49 -10 44 -1 96 16 96 8 0 16 16 20 39 5 28 10 38
20 34 10 -4 12 0 8 11 -4 11 -1 16 11 16 9 0 15 6 12 13 -2 6 -9 11 -15 10 -6
-2 0 14 13 34 14 19 25 42 25 49 0 8 4 14 9 14 5 0 14 14 20 30 9 26 20 34 42
32 4 -1 5 15 2 34 -4 32 -2 36 26 47 17 6 31 15 31 19 0 4 7 8 16 8 8 0 12 5
9 10 -3 6 1 13 11 17 11 4 24 -2 37 -18 14 -16 18 -18 14 -6 -5 13 -2 17 11
15 11 -2 16 3 14 13 -2 12 8 18 37 23 22 3 47 3 55 0 9 -3 16 -2 16 4 0 5 12
7 26 4 20 -4 26 0 31 18 4 17 11 20 27 15 27 -8 63 -15 101 -20 17 -1 40 -6
53 -10 17 -6 22 -3 22 10 0 11 5 15 19 10 14 -4 19 -1 17 12 -1 12 5 17 17 15
9 -2 17 1 17 7 0 5 8 12 18 14 18 5 26 3 107 -21z m-121 -1267 c-4 -8 -8 -15
-10 -15 -2 0 -4 7 -4 15 0 8 4 15 10 15 5 0 7 -7 4 -15z m-57 -33 c-9 -42 7
-60 27 -31 13 19 16 20 16 6 0 -34 45 -69 89 -71 l41 -1 -6 -50 c-4 -27 -11
-53 -16 -56 -12 -8 -11 -19 9 -48 11 -18 12 -25 3 -31 -9 -5 -9 -9 -1 -14 16
-11 13 -53 -10 -126 -18 -60 -19 -66 -3 -77 9 -6 13 -16 10 -22 -4 -6 -1 -19
6 -30 10 -16 10 -23 0 -33 -16 -16 -15 -29 2 -22 16 6 17 -27 1 -38 -6 -5 -4
-19 8 -39 9 -17 17 -36 17 -43 0 -7 6 -26 14 -42 8 -16 21 -51 28 -77 10 -40
10 -50 -1 -56 -7 -5 -11 -15 -9 -22 6 -18 -49 -99 -66 -99 -7 0 -25 -9 -40
-21 -18 -14 -42 -21 -69 -21 -56 -1 -72 4 -102 30 -14 13 -30 20 -36 17 -5 -4
-18 12 -28 34 -15 34 -16 51 -9 98 10 63 15 76 28 68 14 -9 34 35 22 47 -11
11 1 50 25 79 7 9 11 24 7 33 -3 9 -1 23 6 31 10 12 10 15 0 15 -8 0 -10 10
-6 33 3 17 2 46 -3 62 -4 17 -4 42 1 57 7 19 5 35 -7 58 -11 21 -13 35 -6 43
9 12 6 101 -5 118 -2 4 0 10 5 13 6 4 6 19 0 39 -5 17 -9 46 -9 64 0 17 -6 33
-12 36 -20 6 13 93 34 89 8 -1 18 4 22 13 10 27 29 17 23 -13z m-262 -113 c14
-18 24 -38 21 -46 -4 -8 -6 -19 -6 -25 0 -19 -33 16 -47 49 -25 61 -10 72 32
22z m1095 -102 c11 -34 0 -50 -43 -61 -26 -6 -27 -5 -18 13 6 11 11 38 11 60
0 39 1 40 20 29 11 -7 24 -25 30 -41z m-450 34 c0 -21 -13 -41 -26 -41 -17 0
-17 5 -2 30 13 21 28 27 28 11z m180 -16 c0 -13 5 -36 12 -50 6 -14 9 -28 5
-31 -6 -7 -107 24 -121 37 -5 5 2 12 17 18 14 6 31 19 37 31 16 29 50 27 50
-5z m110 0 c0 -8 -4 -15 -10 -15 -5 0 -10 7 -10 15 0 8 5 15 10 15 6 0 10 -7
10 -15z m-1315 -104 c-8 -8 -36 9 -42 26 -4 10 -10 21 -15 24 -14 9 3 40 26
49 19 7 22 3 28 -44 3 -28 5 -53 3 -55z m260 89 c10 -11 26 -20 37 -20 43 0 0
-34 -71 -55 -22 -7 -23 -6 -16 36 11 67 19 73 50 39z m-127 -1 c-2 -6 -8 -10
-13 -10 -5 0 -11 4 -13 10 -2 6 4 11 13 11 9 0 15 -5 13 -11z m886 -41 c-38
-44 -54 -56 -54 -42 0 10 73 84 84 84 4 0 -9 -19 -30 -42z m71 -8 c-3 -5 -10
-10 -16 -10 -5 0 -9 5 -9 10 0 6 7 10 16 10 8 0 12 -4 9 -10z m-945 -45 c10
-12 10 -15 -4 -15 -9 0 -16 7 -16 15 0 8 2 15 4 15 2 0 9 -7 16 -15z m920 -6
c0 -5 -4 -9 -10 -9 -5 0 -10 7 -10 16 0 8 5 12 10 9 6 -3 10 -10 10 -16z m235
-7 c-8 -8 -25 10 -19 20 4 6 9 5 15 -3 4 -7 6 -15 4 -17z m-1115 -2 c0 -5 -4
-10 -10 -10 -5 0 -10 5 -10 10 0 6 5 10 10 10 6 0 10 -4 10 -10z m210 -24 c0
-11 -19 -15 -25 -6 -3 5 1 10 9 10 9 0 16 -2 16 -4z m-670 -16 c5 0 10 -17 12
-37 3 -36 5 -38 36 -35 24 1 32 -2 32 -15 0 -9 3 -13 7 -10 3 4 13 1 22 -7 29
-25 172 -40 230 -23 45 13 45 13 36 27 -5 8 -11 8 -21 -1 -16 -13 -27 -9 -16
6 29 41 111 84 99 53 -2 -7 -10 -12 -16 -10 -6 1 -11 -7 -11 -18 0 -11 -4 -20
-10 -20 -5 0 -10 -5 -10 -11 0 -7 7 -8 18 -4 40 17 81 22 91 12 8 -8 11 -7 11
2 0 7 4 10 9 7 5 -4 22 -1 38 5 49 20 63 18 63 -9 0 -14 -8 -34 -17 -44 -13
-14 -14 -21 -5 -30 15 -15 16 -68 2 -68 -16 0 -11 -28 7 -38 11 -7 17 -26 19
-67 1 -32 8 -68 15 -81 10 -20 9 -34 -4 -84 -28 -100 -18 -234 15 -214 8 5 9
1 3 -12 -8 -17 -10 -35 -14 -94 0 -11 -9 -24 -18 -27 -10 -4 -26 -17 -36 -30
-10 -12 -24 -20 -32 -17 -8 4 -18 -1 -21 -10 -7 -18 -25 -22 -21 -5 4 21 -21
20 -28 0 -3 -12 -11 -21 -18 -21 -20 0 -57 -43 -57 -67 0 -25 -17 -64 -32 -74
-15 -10 -17 -89 -2 -89 9 0 11 -10 7 -36 -6 -35 -5 -36 16 -24 25 13 51 -1 51
-26 0 -15 22 -19 34 -7 3 4 15 7 25 8 13 1 17 -3 13 -14 -5 -13 -3 -14 9 -4
12 10 20 9 37 -3 12 -8 27 -12 34 -8 23 15 64 9 86 -13 l24 -22 -24 6 c-20 5
-18 0 16 -35 22 -23 42 -39 46 -37 3 2 12 -5 19 -17 7 -11 8 -17 2 -14 -5 4
-12 -2 -14 -11 -3 -10 -8 -28 -12 -40 -5 -17 -3 -21 7 -18 14 5 21 -5 46 -65
9 -22 10 -20 5 12 -4 25 -2 38 6 38 6 0 11 -12 11 -27 0 -14 3 -23 6 -20 4 3
15 -4 26 -18 22 -29 21 -74 -4 -130 -15 -34 -17 -36 -12 -10 l6 30 -21 -25
c-11 -14 -21 -19 -21 -12 0 7 -4 11 -9 8 -5 -4 -11 -1 -13 6 -3 8 -14 5 -36
-11 -23 -16 -30 -18 -26 -7 7 17 -11 22 -21 6 -3 -5 -17 -10 -31 -10 -14 0
-22 4 -19 10 3 6 -3 10 -13 10 -15 0 -19 5 -15 20 3 11 0 27 -7 35 -7 8 -10
21 -7 30 4 8 -3 21 -15 29 -17 12 -20 21 -15 54 7 44 1 57 -20 40 -11 -8 -12
-7 -7 6 4 9 1 16 -6 16 -7 0 -10 7 -6 15 6 17 -9 21 -19 5 -5 -8 -11 -8 -19
-1 -9 7 -18 4 -31 -12 l-19 -22 -6 25 c-4 17 -8 21 -14 12 -12 -20 -46 -15
-46 7 0 11 -4 23 -10 26 -5 3 -10 17 -10 30 0 18 -5 23 -20 20 -17 -3 -20 2
-20 35 0 31 -3 38 -15 34 -9 -4 -15 0 -15 8 0 8 -9 25 -20 38 -10 12 -26 46
-35 75 -8 29 -19 55 -23 57 -4 2 -18 35 -30 75 -13 39 -29 77 -37 83 -8 7 -12
16 -9 21 3 5 2 15 -3 21 -4 7 -6 25 -4 41 1 17 -3 29 -13 33 -8 3 -13 11 -10
17 2 7 -6 17 -18 22 -15 7 -23 19 -23 36 -1 15 -8 37 -16 50 -21 33 -51 137
-44 149 3 6 -1 13 -9 16 -9 3 -13 10 -10 15 7 12 -18 69 -30 69 -4 0 -6 14 -4
30 3 18 -1 35 -9 41 -17 15 -17 64 1 81 17 17 9 76 -10 80 -12 2 -10 10 6 41
11 20 18 37 16 37 -18 0 -34 -14 -29 -26 3 -8 0 -14 -5 -14 -6 0 -12 -8 -15
-17 -2 -10 -4 0 -4 22 0 22 5 46 10 53 5 6 6 12 1 12 -13 0 -9 57 4 73 7 8 9
17 5 20 -3 4 1 7 11 7 9 0 19 7 23 16 3 8 12 13 20 10 8 -3 18 -6 23 -6z
m1700 -121 c19 -1 39 -1 43 0 4 1 10 -6 13 -14 5 -11 10 -13 19 -5 9 8 14 6
19 -5 3 -8 15 -15 26 -15 16 0 20 7 20 31 0 29 2 31 26 25 21 -6 25 -4 21 8
-4 10 -1 16 8 16 7 0 17 10 21 22 6 21 7 21 21 -5 7 -15 18 -27 24 -27 6 0 8
-9 4 -20 -4 -11 -2 -20 4 -20 6 0 11 -9 11 -21 0 -11 4 -17 11 -14 7 5 5 14
-5 29 -13 20 -12 22 3 21 23 -1 39 -13 52 -37 7 -13 7 -18 1 -14 -16 9 -23
-10 -16 -38 3 -15 11 -23 18 -20 6 3 1 -3 -12 -13 -16 -13 -19 -22 -12 -29 11
-11 3 -47 -9 -39 -4 2 -8 -2 -8 -10 0 -8 4 -12 9 -9 4 3 8 -8 8 -25 0 -16 5
-33 10 -36 6 -3 10 -11 10 -18 0 -8 -3 -8 -12 1 -7 7 -15 12 -18 12 -7 0 -7
-7 -10 -143 -2 -65 -4 -76 -16 -66 -11 9 -14 8 -15 -5 -2 -24 -4 -30 -12 -43
-4 -6 -3 -14 2 -17 12 -7 2 -46 -11 -46 -6 0 -7 7 -4 16 3 8 2 12 -4 9 -6 -3
-10 0 -10 7 0 10 -3 9 -10 -2 -5 -9 -5 -19 1 -26 6 -7 2 -31 -13 -69 -20 -54
-21 -58 -5 -70 9 -7 17 -18 17 -26 0 -10 -3 -10 -11 -2 -9 9 -16 8 -28 -4 -17
-18 -21 -44 -7 -55 5 -3 2 -14 -7 -23 -20 -19 -23 -39 -4 -29 6 4 2 -4 -11
-18 -12 -13 -19 -28 -15 -32 4 -4 0 -12 -9 -17 -9 -5 -19 -23 -23 -40 -4 -17
-13 -33 -20 -35 -7 -3 -16 -16 -19 -29 -4 -17 -11 -22 -22 -18 -10 4 -15 1
-14 -8 4 -29 0 -38 -17 -32 -13 5 -15 2 -10 -17 3 -13 0 -28 -8 -37 -8 -7 -12
-20 -8 -29 3 -9 -8 -31 -26 -54 -17 -21 -31 -42 -31 -47 0 -4 -9 -19 -20 -33
l-19 -25 -24 23 c-30 28 -44 16 -16 -14 26 -28 9 -40 -22 -15 -23 19 -24 19
-45 -4 -12 -13 -24 -22 -27 -19 -2 2 -10 -3 -17 -11 -10 -12 -10 -21 -2 -40 7
-14 7 -25 2 -25 -5 0 -8 -21 -6 -47 4 -70 -2 -86 -31 -80 -18 3 -23 1 -18 -10
4 -12 0 -14 -20 -9 -14 4 -34 1 -45 -6 -17 -11 -23 -9 -49 22 -26 30 -30 32
-31 15 -1 -19 -1 -19 -14 -2 -17 22 -26 22 -27 0 -1 -10 -5 -2 -9 17 -9 38 -1
55 28 55 17 0 33 38 47 108 5 24 8 27 21 16 12 -10 13 -9 8 6 -5 13 -4 16 4
11 7 -4 15 0 19 11 3 10 12 21 18 25 7 4 10 18 8 32 -4 17 1 27 16 35 12 7 27
27 35 45 7 18 20 33 27 34 52 4 59 7 59 28 0 50 29 71 58 42 9 -9 12 -8 12 4
0 20 22 29 41 17 24 -15 49 -11 42 8 -5 12 -2 15 10 10 9 -3 17 -2 17 2 0 5
-6 11 -14 14 -8 3 -12 15 -9 30 3 16 -5 39 -22 66 -15 22 -25 47 -22 55 7 18
-22 44 -53 49 -19 3 -24 10 -25 33 0 20 -7 32 -25 41 -16 8 -26 9 -28 2 -3 -6
-10 -5 -20 3 -8 7 -25 13 -36 13 -15 0 -21 6 -20 23 0 15 -5 22 -18 22 -16 0
-17 8 -14 80 3 44 7 83 10 88 3 5 -4 45 -15 88 -12 44 -23 108 -24 144 -5 88
-14 189 -21 223 -14 69 -13 75 15 67 14 -4 32 -5 39 -3 19 7 14 33 -7 33 -11
0 -23 5 -27 12 -5 8 0 9 17 4 13 -4 52 -9 86 -10 47 -2 60 1 56 11 -5 12 8 18
30 14 4 0 7 4 7 9 0 6 11 8 25 6 18 -3 25 0 25 11 0 10 18 -2 48 -31 36 -36
55 -46 82 -47z m-2217 -189 c-3 -11 -7 -20 -9 -20 -2 0 -4 9 -4 20 0 11 4 20
9 20 5 0 7 -9 4 -20z m120 -40 c5 -21 31 -27 42 -10 18 29 25 5 19 -62 -4 -53
-2 -85 9 -118 30 -91 30 -103 -2 -121 -20 -12 -30 -27 -35 -52 -5 -25 -11 -34
-21 -31 -16 6 -52 109 -59 166 -2 21 -8 43 -12 49 -11 18 -6 90 8 107 7 8 13
20 13 26 2 24 18 66 25 66 4 0 10 -9 13 -20z m3571 -31 c13 2 9 -14 -5 -17 -9
-2 -15 6 -16 20 -2 16 0 19 6 10 5 -8 11 -13 15 -13z m-749 -86 c-5 -87 -7
-90 -14 -23 -7 60 -3 90 9 90 5 0 7 -30 5 -67z m-2965 31 c0 -8 -4 -12 -10 -9
-5 3 -10 10 -10 16 0 5 5 9 10 9 6 0 10 -7 10 -16z m263 -50 c19 -108 19 -120
3 -100 -8 10 -23 41 -32 69 -13 40 -14 54 -4 76 12 25 13 25 20 5 5 -12 11
-34 13 -50z m3379 34 c-8 -8 -9 -4 -5 13 4 13 8 18 11 10 2 -7 -1 -18 -6 -23z
m58 -28 c0 -5 -6 -10 -14 -10 -8 0 -17 -7 -20 -16 -7 -17 -26 -10 -26 11 0 13
17 21 48 24 6 0 12 -3 12 -9z m-71 -26 c2 -2 -3 -4 -12 -4 -9 0 -23 -10 -31
-22 -14 -19 -16 -19 -22 -5 -11 31 3 48 33 41 16 -4 30 -8 32 -10z m291 -4 c0
-5 -5 -10 -11 -10 -5 0 -7 5 -4 10 3 6 8 10 11 10 2 0 4 -4 4 -10z m-190 -6
c0 -8 -19 -13 -24 -6 -3 5 1 9 9 9 8 0 15 -2 15 -3z m-114 -108 c1 -9 -4 -12
-12 -9 -9 3 -14 0 -12 -7 2 -7 -2 -14 -9 -17 -11 -4 -10 15 3 56 5 17 26 0 30
-23z m64 20 c0 -12 -10 -14 -38 -7 -2 1 0 6 3 11 9 15 35 12 35 -4z m250 4 c0
-5 -8 -10 -17 -10 -15 0 -16 2 -3 10 19 12 20 12 20 0z m-206 -6 c9 -3 16 -10
16 -16 0 -14 -43 -5 -48 10 -4 13 7 15 32 6z m-154 -24 c0 -5 -4 -10 -10 -10
-5 0 -10 5 -10 10 0 6 5 10 10 10 6 0 10 -4 10 -10z m-47 -14 c19 -14 23 -36
7 -36 -19 0 -25 5 -22 17 2 7 -4 13 -13 13 -8 0 -15 5 -15 10 0 14 22 12 43
-4z m187 -11 c0 -8 -7 -15 -15 -15 -16 0 -20 12 -8 23 11 12 23 8 23 -8z
m-3409 -66 c7 -13 9 -40 5 -69 -5 -36 -3 -50 9 -60 22 -19 19 -57 -6 -65 -27
-9 -41 5 -44 44 -1 17 -8 37 -15 46 -7 8 -10 15 -6 15 4 0 0 12 -7 28 -30 58
33 118 64 61z m953 -44 c-4 -8 -10 -15 -15 -15 -5 0 -9 7 -9 15 0 8 7 15 15
15 9 0 12 -6 9 -15z m304 -67 c7 -7 12 -33 12 -59 0 -29 6 -51 15 -59 8 -7 15
-17 15 -22 0 -5 9 -18 20 -30 16 -18 24 -20 43 -11 31 14 69 -16 72 -59 2 -17
0 -26 -4 -20 -4 7 -26 6 -71 -5 -47 -10 -97 -13 -182 -9 -86 4 -121 2 -130 -7
-14 -13 -118 -17 -118 -4 0 4 0 12 0 18 0 6 7 9 15 5 17 -6 65 12 65 25 0 5 7
6 15 3 10 -4 15 0 15 12 0 14 3 15 12 6 16 -16 28 -15 28 2 0 9 7 13 20 11 11
-2 32 3 47 11 16 7 33 14 38 14 19 0 40 35 40 65 -1 17 -4 47 -9 67 -11 52 11
77 42 46z m1892 -209 c0 -11 -50 -29 -65 -23 -18 7 -20 50 -2 57 12 5 67 -23
67 -34z m350 10 c0 -14 5 -19 14 -16 8 3 17 3 21 -1 3 -4 23 -7 42 -7 22 -1
39 -7 42 -16 10 -24 45 -74 58 -82 20 -13 4 -29 -25 -25 -21 2 -27 -2 -34 -28
-4 -17 -15 -37 -23 -44 -18 -15 -22 -6 -28 60 -2 25 -7 54 -12 64 -6 15 -5 17
4 11 8 -4 17 -2 22 6 16 25 9 31 -33 28 -37 -3 -44 0 -60 26 -22 37 -22 45 -3
45 9 0 15 -9 15 -21z m-1954 -55 c-7 -19 -76 -16 -76 4 0 8 6 12 15 8 8 -3 15
-1 15 5 0 6 9 8 20 4 13 -4 20 -2 21 7 0 10 2 10 6 0 3 -7 2 -19 -1 -28z m594
-124 c0 -5 -2 -10 -4 -10 -3 0 -8 5 -11 10 -3 6 -1 10 4 10 6 0 11 -4 11 -10z
m-920 -69 c18 -35 13 -54 -12 -47 -13 4 -30 8 -38 9 -15 2 -40 21 -40 31 0 3
9 6 19 6 11 0 23 5 26 10 10 16 34 11 45 -9z m40 4 c0 -8 -4 -15 -10 -15 -5 0
-10 7 -10 15 0 8 5 15 10 15 6 0 10 -7 10 -15z m130 -1 c11 -13 10 -16 -8 -21
-12 -3 -22 -7 -22 -9 0 -8 52 -54 61 -54 6 0 7 -4 4 -10 -3 -5 -23 -9 -45 -8
-29 1 -38 5 -37 18 1 12 8 15 26 13 23 -3 24 -2 6 6 -11 5 -28 18 -39 30 -15
17 -16 23 -6 36 16 19 44 19 60 -1z m40 -14 c0 -5 -4 -10 -10 -10 -5 0 -10 5
-10 10 0 6 5 10 10 10 6 0 10 -4 10 -10z m618 -78 c2 -7 0 -12 -5 -11 -23 4
-30 -3 -25 -28 3 -16 10 -31 16 -35 7 -5 3 -13 -11 -23 -13 -9 -20 -22 -17
-30 8 -19 -31 -21 -42 -3 -6 9 -10 5 -15 -12 -6 -22 -7 -21 -8 10 -1 26 7 46
30 73 16 20 31 46 32 57 1 23 37 25 45 2z m-875 1 c-7 -2 -19 -2 -25 0 -7 3
-2 5 12 5 14 0 19 -2 13 -5z m152 -3 c-3 -5 -12 -10 -18 -10 -7 0 -6 4 3 10
19 12 23 12 15 0z m1822 -22 c-3 -8 -6 -5 -6 6 -1 11 2 17 5 13 3 -3 4 -12 1
-19z m-1087 -18 c0 -5 -4 -10 -10 -10 -5 0 -10 5 -10 10 0 6 5 10 10 10 6 0
10 -4 10 -10z m1118 -86 c-4 -3 -12 5 -18 18 -12 22 -12 22 6 6 10 -10 15 -20
12 -24z m-1458 -41 c0 -13 -3 -13 -15 -3 -8 7 -12 16 -9 21 8 13 24 1 24 -18z
m1473 -110 c-7 -2 -19 -2 -25 0 -7 3 -2 5 12 5 14 0 19 -2 13 -5z m-1190 -546
c4 3 7 1 7 -6 0 -7 -13 -11 -35 -9 -19 1 -35 5 -35 9 0 11 34 16 46 7 6 -4 14
-5 17 -1z m-83 -20 c-9 -7 -25 -28 -38 -47 -16 -26 -22 -30 -22 -16 0 21 47
76 64 76 6 0 4 -6 -4 -13z m-1446 -18 c38 -30 32 -40 -11 -18 -21 10 -43 19
-51 19 -7 0 -10 5 -7 10 10 16 40 11 69 -11z m1457 -62 c-11 -24 -21 -49 -21
-55 0 -7 -4 -12 -10 -12 -5 0 -10 16 -10 35 0 25 8 44 26 62 34 34 41 23 15
-30z m-1457 -18 c29 -34 32 -47 13 -73 -12 -16 -13 -16 -28 1 -8 10 -23 37
-31 61 -16 40 -15 42 2 42 10 0 30 -14 44 -31z m712 -337 c-10 -2 -22 2 -27
10 -16 24 -9 29 18 11 23 -15 24 -18 9 -21z m5 -37 c1 -19 -20 -16 -31 4 -9
18 -8 20 11 13 11 -5 20 -12 20 -17z m47 -11 c-18 -18 -105 -33 -95 -16 4 5
15 8 25 6 9 -3 31 4 47 14 34 22 47 19 23 -4z"/>
<path d="M3025 4341 c-3 -5 -1 -12 5 -16 5 -3 10 1 10 9 0 18 -6 21 -15 7z"/>
<path d="M2056 4251 c-4 -7 -5 -15 -2 -18 9 -9 19 4 14 18 -4 11 -6 11 -12 0z"/>
<path d="M2100 4221 c-24 -20 -31 -34 -26 -46 6 -17 8 -16 24 6 9 13 28 34 42
46 19 17 21 22 9 23 -9 0 -31 -13 -49 -29z"/>
<path d="M1855 3620 c-8 -13 3 -30 19 -30 7 0 21 -9 31 -20 20 -22 35 -26 35
-10 0 6 -7 10 -15 10 -14 0 -20 13 -16 34 4 21 -43 34 -54 16z"/>
<path d="M3375 3470 c-3 -5 -2 -10 4 -10 5 0 13 5 16 10 3 6 2 10 -4 10 -5 0
-13 -4 -16 -10z"/>
<path d="M2540 3170 c-13 -8 -12 -10 3 -10 9 0 17 5 17 10 0 12 -1 12 -20 0z"/>
<path d="M2015 1610 c-3 -5 -2 -10 4 -10 5 0 13 5 16 10 3 6 2 10 -4 10 -5 0
-13 -4 -16 -10z"/>
<path d="M2305 1460 c3 -5 10 -10 16 -10 5 0 9 5 9 10 0 6 -7 10 -16 10 -8 0
-12 -4 -9 -10z"/>
<path d="M3420 2595 c0 -8 7 -15 16 -15 14 0 14 3 4 15 -7 8 -14 15 -16 15 -2
0 -4 -7 -4 -15z"/>
<path d="M2905 1110 c3 -5 8 -10 11 -10 2 0 4 5 4 10 0 6 -5 10 -11 10 -5 0
-7 -4 -4 -10z"/>
<path d="M5037 1634 c-14 -14 -7 -35 11 -32 9 2 17 10 17 17 0 16 -18 25 -28
15z"/>
<path d="M327 4793 c183 -2 483 -2 665 0 183 1 34 2 -332 2 -366 0 -515 -1
-333 -2z"/>
<path d="M1423 4793 c53 -2 141 -2 195 0 53 1 9 3 -98 3 -107 0 -151 -2 -97
-3z"/>
<path d="M1773 4793 c15 -2 37 -2 50 0 12 2 0 4 -28 4 -27 0 -38 -2 -22 -4z"/>
<path d="M5298 4783 c12 -2 32 -2 45 0 12 2 2 4 -23 4 -25 0 -35 -2 -22 -4z"/>
<path d="M0 4495 c0 -32 3 -35 28 -34 15 0 36 4 47 9 l20 9 -20 2 c-11 1 -28
2 -37 1 -13 -1 -18 6 -18 23 0 14 -4 25 -10 25 -5 0 -10 -16 -10 -35z"/>
<path d="M1245 4514 c-18 -13 -17 -14 15 -8 43 8 63 24 30 24 -14 0 -34 -7
-45 -16z"/>
<path d="M900 4511 c-22 -6 -23 -8 -7 -14 13 -5 16 -13 12 -27 -4 -11 -2 -20
4 -20 6 0 11 5 11 11 0 23 30 39 74 39 25 0 46 3 46 8 0 9 -106 12 -140 3z"/>
<path d="M1080 4500 c-9 -6 -10 -10 -3 -10 6 0 15 5 18 10 8 12 4 12 -15 0z"/>
<path d="M180 4450 c0 -5 5 -10 11 -10 5 0 7 5 4 10 -3 6 -8 10 -11 10 -2 0
-4 -4 -4 -10z"/>
<path d="M548 4453 c7 -3 16 -2 19 1 4 3 -2 6 -13 5 -11 0 -14 -3 -6 -6z"/>
<path d="M600 4440 c19 -13 30 -13 30 0 0 6 -10 10 -22 10 -19 0 -20 -2 -8
-10z"/>
<path d="M3910 4170 c0 -5 7 -10 15 -10 8 0 15 5 15 10 0 6 -7 10 -15 10 -8 0
-15 -4 -15 -10z"/>
<path d="M382 3958 c-15 -15 -15 -51 0 -66 7 -7 27 -12 45 -12 36 0 42 16 23
64 -10 28 -47 35 -68 14z m51 -6 c9 -14 -5 -62 -19 -62 -15 0 -29 43 -19 59 7
13 32 15 38 3z"/>
<path d="M760 3925 c0 -25 5 -45 10 -45 6 0 10 20 10 45 0 25 -4 45 -10 45 -5
0 -10 -20 -10 -45z"/>
<path d="M987 3953 c-22 -11 -27 -21 -25 -41 2 -22 9 -28 36 -30 32 -3 32 -3
32 42 0 50 -2 51 -43 29z m21 -35 c-2 -13 -7 -23 -13 -23 -5 0 -11 10 -13 23
-2 15 2 22 13 22 11 0 15 -7 13 -22z"/>
<path d="M475 3917 c3 -38 25 -50 25 -13 0 13 5 28 10 31 6 3 10 -2 10 -12 0
-25 19 -43 45 -42 19 0 19 1 1 8 -20 8 -33 51 -16 51 6 0 10 -4 10 -10 0 -5 5
-10 10 -10 6 0 10 6 10 14 0 10 -15 14 -54 14 l-54 0 3 -31z"/>
<path d="M603 3934 c-9 -24 10 -49 38 -51 21 -2 21 -2 5 5 -20 9 -33 52 -16
52 6 0 10 -4 10 -10 0 -5 5 -10 10 -10 6 0 10 7 10 15 0 21 -49 20 -57 -1z"/>
<path d="M680 3916 c0 -42 17 -49 22 -8 4 33 22 32 26 -3 5 -37 24 -30 20 8
-3 28 -7 32 -35 35 -32 3 -33 2 -33 -32z"/>
<path d="M820 3942 c18 -8 26 -52 10 -52 -7 0 -9 7 -6 16 4 10 1 14 -6 12 -7
-3 -14 -12 -16 -21 -3 -13 4 -17 27 -17 29 0 31 3 31 35 0 32 -3 35 -27 34
-19 0 -23 -3 -13 -7z"/>
<path d="M880 3913 c0 -18 5 -33 10 -33 6 0 10 11 10 24 0 14 5 28 10 31 6 4
10 -7 10 -24 0 -17 5 -31 10 -31 6 0 10 15 10 34 0 32 -2 35 -30 34 -27 -1
-30 -4 -30 -35z"/>
<path d="M540 3804 c0 -19 4 -34 10 -34 5 0 7 6 4 14 -3 7 2 16 10 19 22 9 20
24 -4 30 -17 4 -20 0 -20 -29z"/>
<path d="M593 3823 c-3 -6 -3 -22 -1 -35 l5 -23 11 25 c11 25 11 25 17 4 8
-26 25 -25 51 1 19 18 19 18 22 -3 4 -24 36 -31 46 -9 5 10 7 10 12 0 3 -7 14
-13 24 -13 10 0 21 6 24 13 5 10 7 10 12 0 9 -20 44 -16 44 5 1 16 1 16 14 0
22 -29 46 -23 46 12 0 17 -4 30 -9 30 -4 0 -6 -12 -4 -27 4 -27 4 -27 -11 -9
-8 10 -13 23 -10 27 3 5 -6 9 -20 9 -14 0 -25 -3 -25 -7 4 -24 -4 -34 -10 -13
-10 36 -39 38 -43 3 l-4 -28 -12 28 c-15 35 -20 34 -37 -5 -14 -33 -14 -33
-15 -6 0 29 -15 45 -25 28 -4 -6 -11 -7 -17 -4 -19 12 -80 10 -85 -3z"/>
<path d="M470 3800 c0 -25 4 -30 24 -30 26 0 39 20 30 45 -10 24 -22 17 -16
-10 2 -15 0 -25 -7 -25 -6 0 -11 11 -11 25 0 14 -4 25 -10 25 -5 0 -10 -13
-10 -30z"/>
<path d="M443 3804 c-3 -8 -1 -20 6 -27 8 -8 11 -4 11 16 0 30 -7 35 -17 11z"/>
<path d="M0 3690 c0 -28 5 -50 10 -50 18 0 23 30 10 55 -7 13 -9 28 -6 34 4 6
2 11 -3 11 -6 0 -11 -21 -11 -50z"/>
<path d="M4785 3529 c-4 -6 -5 -12 -2 -15 2 -3 7 2 10 11 7 17 1 20 -8 4z"/>
<path d="M5040 3529 c0 -5 5 -7 10 -4 6 3 10 8 10 11 0 2 -4 4 -10 4 -5 0 -10
-5 -10 -11z"/>
<path d="M5025 3500 c-3 -5 -12 -7 -20 -3 -8 3 -15 0 -15 -6 0 -6 11 -11 25
-11 16 0 25 6 25 15 0 17 -6 19 -15 5z"/>
<path d="M5116 3491 c-3 -5 1 -12 10 -15 20 -8 29 -1 19 13 -8 13 -22 14 -29
2z"/>
<path d="M5176 3492 c-14 -14 -2 -19 49 -20 42 -1 55 2 55 13 0 18 -21 20 -37
4 -7 -7 -17 -8 -25 -3 -17 11 -35 14 -42 6z"/>
<path d="M5055 3480 c3 -5 8 -10 11 -10 2 0 4 5 4 10 0 6 -5 10 -11 10 -5 0
-7 -4 -4 -10z"/>
<path d="M4505 3350 c-3 -5 -1 -10 4 -10 6 0 11 5 11 10 0 6 -2 10 -4 10 -3 0
-8 -4 -11 -10z"/>
<path d="M4841 3338 c8 -7 23 -22 33 -33 14 -15 13 -11 -3 13 -12 17 -27 32
-34 32 -6 0 -5 -5 4 -12z"/>
<path d="M641 3324 c0 -11 3 -14 6 -6 3 7 2 16 -1 19 -3 4 -6 -2 -5 -13z"/>
<path d="M640 3291 c0 -6 4 -13 10 -16 6 -3 7 1 4 9 -7 18 -14 21 -14 7z"/>
<path d="M4892 3258 c-15 -15 -15 -45 0 -54 7 -5 9 -1 6 13 -3 11 -1 28 4 37
11 19 7 21 -10 4z"/>
<path d="M4260 3194 c0 -8 5 -12 11 -9 6 4 13 -2 16 -14 3 -12 10 -21 15 -21
5 0 6 10 2 23 -11 35 -44 51 -44 21z"/>
<path d="M410 3186 c0 -9 5 -16 10 -16 6 0 10 4 10 9 0 6 -4 13 -10 16 -5 3
-10 -1 -10 -9z"/>
<path d="M300 3080 c0 -5 6 -10 14 -10 8 0 18 5 21 10 3 6 -3 10 -14 10 -12 0
-21 -4 -21 -10z"/>
<path d="M4600 3081 c-14 -1 -28 -8 -32 -15 -11 -16 -10 -46 2 -46 6 0 10 5
10 11 0 6 7 17 15 25 13 14 15 13 15 -10 0 -14 5 -28 10 -31 6 -4 10 7 10 24
0 38 20 41 21 4 l1 -28 8 25 7 25 11 -27 c10 -24 17 -28 50 -28 21 0 43 5 50
12 9 9 12 9 12 0 0 -7 9 -12 20 -12 13 0 20 7 20 20 0 11 5 20 10 20 6 0 10
-8 10 -19 0 -14 6 -17 25 -13 19 3 25 11 25 29 0 15 4 22 11 17 6 -3 8 -17 5
-30 -5 -18 -3 -22 9 -18 18 7 20 50 4 60 -7 4 -34 8 -61 8 -42 2 -51 -1 -58
-18 -8 -20 -9 -20 -9 2 -1 30 -17 28 -33 -5 -19 -39 -38 -41 -38 -5 0 30 0 31
-52 29 -29 -1 -64 -4 -78 -6z m277 -43 c-3 -8 -6 -5 -6 6 -1 11 2 17 5 13 3
-3 4 -12 1 -19z"/>
<path d="M4985 3060 c3 -5 12 -10 20 -10 17 0 28 -31 15 -44 -16 -16 -12 -30
5 -16 22 18 18 46 -7 64 -25 18 -42 21 -33 6z"/>
<path d="M278 3053 c7 -3 16 -2 19 1 4 3 -2 6 -13 5 -11 0 -14 -3 -6 -6z"/>
<path d="M216 3025 c-10 -7 -15 -18 -11 -24 10 -17 28 -13 21 4 -3 9 0 15 9
15 8 0 15 5 15 10 0 14 -11 12 -34 -5z"/>
<path d="M4951 2966 c0 -17 -11 -41 -23 -55 l-23 -25 28 22 c16 11 38 33 50
49 l21 28 -21 -18 c-21 -18 -21 -18 -26 5 -4 19 -4 18 -6 -6z"/>
<path d="M5251 2974 c0 -11 3 -14 6 -6 3 7 2 16 -1 19 -3 4 -6 -2 -5 -13z"/>
<path d="M200 2959 c0 -5 5 -7 10 -4 6 3 10 8 10 11 0 2 -4 4 -10 4 -5 0 -10
-5 -10 -11z"/>
<path d="M135 2899 c-10 -15 3 -25 16 -12 7 7 7 13 1 17 -6 3 -14 1 -17 -5z"/>
<path d="M4590 2859 c0 -23 4 -30 14 -26 10 4 16 -2 18 -16 4 -29 34 -34 43
-7 3 11 11 18 16 15 5 -4 29 -3 54 1 34 5 45 11 45 25 0 21 -17 34 -22 18 -3
-8 -10 -5 -22 6 -14 14 -20 15 -26 5 -5 -7 -17 -10 -30 -7 -12 3 -33 2 -46 -3
-19 -7 -24 -6 -24 5 0 8 -4 15 -10 15 -5 0 -10 -14 -10 -31z"/>
<path d="M4490 2855 c0 -14 5 -25 10 -25 6 0 10 5 10 10 0 6 7 6 19 -1 22 -14
51 -6 51 15 0 18 -42 29 -53 13 -7 -9 -10 -9 -14 1 -8 21 -23 13 -23 -13z"/>
<path d="M105 2861 c3 -6 -2 -14 -11 -19 -9 -5 -14 -17 -12 -28 5 -18 5 -18
13 1 5 11 18 28 30 37 l20 17 -23 1 c-13 0 -21 -4 -17 -9z"/>
<path d="M4837 2850 c-16 -10 -24 -20 -19 -24 5 -3 20 6 32 19 27 29 25 30
-13 5z"/>
<path d="M17 2805 c-9 -7 -14 -15 -10 -18 11 -12 40 -8 52 7 16 19 -19 28 -42
11z"/>
<path d="M4480 2810 c0 -5 5 -10 11 -10 5 0 7 5 4 10 -3 6 -8 10 -11 10 -2 0
-4 -4 -4 -10z"/>
<path d="M4530 2790 c0 -5 7 -7 15 -4 8 4 15 8 15 10 0 2 -7 4 -15 4 -8 0 -15
-4 -15 -10z"/>
<path d="M4990 2780 c0 -5 5 -10 10 -10 6 0 10 5 10 10 0 6 -4 10 -10 10 -5 0
-10 -4 -10 -10z"/>
<path d="M5018 2755 c-4 -4 -4 -13 -1 -21 6 -16 53 -19 53 -4 0 6 -9 10 -19
10 -11 0 -21 5 -23 11 -2 5 -6 7 -10 4z"/>
<path d="M5170 2739 c0 -11 5 -17 10 -14 6 3 15 3 21 -1 20 -12 89 -10 94 4 4
11 -30 17 -77 13 -9 -1 -19 3 -23 9 -11 17 -25 11 -25 -11z"/>
<path d="M4625 2741 c-7 -12 12 -24 25 -16 11 7 4 25 -10 25 -5 0 -11 -4 -15
-9z"/>
<path d="M5080 2733 c0 -8 13 -13 30 -13 17 0 30 5 30 13 0 7 -13 12 -30 12
-17 0 -30 -5 -30 -12z"/>
<path d="M5323 2743 c-23 -9 -15 -35 10 -31 12 2 22 9 22 17 0 16 -14 22 -32
14z"/>
<path d="M4573 2733 c-7 -2 -13 -12 -13 -21 0 -14 2 -14 9 -3 5 7 14 10 20 7
6 -4 11 0 11 8 0 16 -6 18 -27 9z"/>
<path d="M4836 2715 c-9 -13 -16 -32 -15 -42 0 -15 1 -15 9 2 4 12 15 27 24
34 9 7 16 17 16 22 0 17 -18 9 -34 -16z"/>
<path d="M4656 2674 c-10 -25 -7 -34 10 -34 10 0 14 -6 11 -14 -4 -9 3 -16 19
-19 13 -2 24 0 24 4 0 5 -6 9 -12 9 -7 0 -5 5 5 11 9 5 17 17 17 24 0 8 5 15
10 15 6 0 10 -7 10 -16 0 -8 5 -12 10 -9 6 3 10 15 10 26 0 16 -7 19 -54 19
-40 0 -55 -4 -60 -16z"/>
<path d="M4832 2621 c3 -33 1 -35 -30 -37 -18 -1 -35 2 -38 7 -3 5 -11 9 -17
9 -28 -1 30 -30 59 -30 45 0 58 20 39 56 l-15 29 2 -34z"/>
<path d="M4630 2609 c0 -5 5 -7 10 -4 6 3 10 8 10 11 0 2 -4 4 -10 4 -5 0 -10
-5 -10 -11z"/>
<path d="M4470 2560 c0 -24 15 -27 24 -4 9 22 8 24 -9 24 -8 0 -15 -9 -15 -20z"/>
<path d="M4512 2553 c2 -10 13 -19 25 -21 17 -3 20 1 16 17 -7 26 -46 29 -41
4z"/>
<path d="M4570 2550 c0 -5 5 -10 10 -10 6 0 10 5 10 10 0 6 -4 10 -10 10 -5 0
-10 -4 -10 -10z"/>
<path d="M4861 2534 c0 -11 9 -29 22 -40 22 -19 22 -19 6 1 -10 11 -19 29 -22
40 -4 19 -5 19 -6 -1z"/>
<path d="M4607 2534 c-8 -8 1 -24 14 -24 5 0 9 7 9 15 0 15 -12 20 -23 9z"/>
<path d="M4680 2520 c0 -18 6 -20 40 -18 23 2 40 8 40 15 0 20 -22 27 -32 9
-11 -20 -28 -21 -28 -1 0 8 -4 15 -10 15 -5 0 -10 -9 -10 -20z"/>
<path d="M4770 2524 c0 -8 5 -12 10 -9 6 3 10 10 10 16 0 5 -4 9 -10 9 -5 0
-10 -7 -10 -16z"/>
<path d="M4483 2463 c9 -2 23 -2 30 0 6 3 -1 5 -18 5 -16 0 -22 -2 -12 -5z"/>
<path d="M5155 2002 c-3 -3 -5 -13 -5 -23 0 -9 -7 -19 -15 -23 -8 -3 -15 -15
-15 -26 0 -28 36 -27 43 2 6 20 7 20 32 4 25 -16 26 -16 35 6 5 13 9 17 9 11
1 -21 49 -15 61 8 15 27 10 31 -47 34 -26 1 -48 3 -48 5 0 4 -45 6 -50 2z"/>
<path d="M4710 1943 c0 -4 7 -16 14 -26 21 -28 95 -17 96 14 0 11 -48 17 -61
8 -7 -4 -21 -3 -31 2 -10 5 -18 6 -18 2z"/>
<path d="M5100 1902 c0 -4 -12 -8 -27 -7 -25 0 -28 -4 -31 -37 -2 -29 0 -38
12 -38 9 0 16 6 16 13 0 8 2 9 8 1 13 -20 49 -26 65 -10 10 11 17 12 25 4 18
-18 24 -4 17 36 -9 48 -31 46 -46 -4 -12 -38 -13 -39 -27 -19 -8 12 -11 30 -8
45 4 13 4 24 1 24 -3 0 -5 -4 -5 -8z"/>
<path d="M4870 1865 c0 -24 5 -38 16 -42 20 -8 46 24 42 50 -4 24 -23 22 -23
-2 0 -11 -3 -23 -7 -27 -5 -4 -8 7 -8 24 0 18 -4 32 -10 32 -5 0 -10 -16 -10
-35z"/>
<path d="M4956 1891 c-2 -3 -3 -19 -2 -35 1 -32 26 -50 26 -19 1 17 1 17 11 0
14 -24 32 -12 19 13 -5 10 -7 25 -4 33 4 10 -2 15 -21 15 -14 0 -27 -3 -29 -7z"/>
<path d="M5220 1860 c0 -29 4 -40 15 -40 11 0 15 11 15 40 0 29 -4 40 -15 40
-11 0 -15 -11 -15 -40z"/>
<path d="M5280 1860 c0 -43 16 -55 23 -17 l4 22 8 -22 c11 -35 25 -27 25 15 0
34 -2 37 -30 39 -29 2 -30 0 -30 -37z"/>
<path d="M5115 1780 c3 -5 8 -10 11 -10 2 0 4 5 4 10 0 6 -5 10 -11 10 -5 0
-7 -4 -4 -10z"/>
<path d="M4776 1671 c-5 -7 -3 -18 3 -24 14 -14 20 -6 11 17 -5 15 -9 16 -14
7z"/>
<path d="M4810 1660 c0 -17 7 -20 40 -20 30 0 40 4 40 16 0 12 -7 15 -25 12
-14 -3 -28 -1 -31 3 -10 16 -24 9 -24 -11z"/>
<path d="M4586 1573 c-10 -10 -7 -53 4 -53 6 0 10 5 10 11 0 8 4 8 13 1 15
-13 84 -9 99 6 8 8 15 7 24 -6 12 -15 13 -15 14 9 0 24 -3 26 -55 27 -41 0
-57 -3 -65 -16 -9 -16 -9 -16 -10 -1 0 18 -24 32 -34 22z m84 -28 c0 -8 -4
-15 -10 -15 -5 0 -10 7 -10 15 0 8 5 15 10 15 6 0 10 -7 10 -15z"/>
<path d="M4770 1561 c0 -5 -2 -15 -5 -23 -4 -9 4 -14 24 -15 20 -1 31 4 36 15
6 16 8 15 21 -2 13 -19 14 -19 14 7 0 22 -5 27 -25 27 -19 0 -25 -5 -26 -22
l0 -23 -9 23 c-9 22 -30 31 -30 13z"/>
<path d="M4872 1545 c0 -16 2 -22 5 -12 2 9 2 23 0 30 -3 6 -5 -1 -5 -18z"/>
<path d="M4901 1552 c-15 -27 -15 -27 14 -28 28 -2 31 4 11 31 -13 18 -14 18
-25 -3z"/>
<path d="M5282 1558 c2 -6 10 -14 16 -16 7 -2 10 2 6 12 -7 18 -28 22 -22 4z"/>
<path d="M5136 1514 c-11 -7 -16 -17 -13 -21 4 -4 15 1 24 10 22 21 14 30 -11
11z"/>
<path d="M4604 1479 c-3 -6 -14 -7 -25 -4 -13 4 -19 2 -19 -9 0 -12 11 -16 45
-16 32 0 45 4 45 14 0 16 -37 28 -46 15z"/>
<path d="M4680 1443 c0 -26 3 -28 37 -27 28 1 39 6 41 19 3 14 -1 17 -22 13
-15 -3 -27 0 -30 8 -9 24 -26 15 -26 -13z"/>
<path d="M4810 1447 c0 -14 7 -27 15 -31 10 -3 15 1 15 13 0 10 -7 24 -15 31
-13 11 -15 9 -15 -13z"/>
<path d="M4996 1451 c-3 -4 -21 -7 -41 -4 -26 2 -35 0 -35 -11 0 -20 17 -29
23 -14 4 9 8 10 14 2 4 -5 18 -10 31 -10 16 0 22 6 22 23 0 24 -5 29 -14 14z"/>
<path d="M4770 1436 c0 -8 4 -17 9 -21 6 -3 9 4 8 15 -1 23 -17 28 -17 6z"/>
<path d="M4860 1440 c0 -26 27 -36 42 -15 13 18 9 25 -17 25 -14 0 -25 -4 -25
-10z"/>
<path d="M5065 1400 c-3 -5 -1 -10 4 -10 6 0 11 5 11 10 0 6 -2 10 -4 10 -3 0
-8 -4 -11 -10z"/>
<path d="M4855 1390 c-7 -12 2 -30 16 -30 5 0 9 9 9 20 0 21 -15 27 -25 10z"/>
<path d="M5118 1098 c-2 -14 -12 -24 -28 -28 -22 -5 -23 -7 -7 -13 35 -13 44
-8 45 28 2 39 -5 47 -10 13z"/>
<path d="M5255 1110 c-4 -6 -3 -16 3 -22 6 -6 12 -6 17 2 4 6 3 16 -3 22 -6 6
-12 6 -17 -2z"/>
<path d="M5140 1094 c0 -8 5 -12 10 -9 6 4 8 11 5 16 -9 14 -15 11 -15 -7z"/>
<path d="M5172 1098 c7 -19 38 -22 38 -4 0 10 -9 16 -21 16 -12 0 -19 -5 -17
-12z"/>
<path d="M5300 1087 c0 -24 43 -19 48 4 2 13 -4 17 -22 15 -18 -1 -26 -7 -26
-19z"/>
<path d="M4940 1046 c0 -18 -7 -39 -15 -46 -8 -7 -15 -19 -15 -26 0 -10 6 -8
20 6 11 11 20 24 20 29 0 5 7 12 16 15 8 3 12 10 9 16 -4 6 -11 7 -17 4 -6 -4
-8 1 -3 15 4 12 2 21 -4 21 -6 0 -11 -15 -11 -34z"/>
<path d="M5149 1049 c-6 -4 3 -14 22 -23 37 -19 40 -18 33 11 -6 21 -32 27
-55 12z"/>
<path d="M5114 989 c-3 -6 -1 -16 5 -22 6 -6 11 -18 11 -28 0 -14 12 -16 80
-17 63 -1 80 2 80 13 0 8 9 19 21 26 16 8 18 14 10 22 -9 9 -14 8 -21 -2 -7
-13 -11 -13 -26 0 -11 9 -15 9 -10 2 11 -20 -98 -17 -118 2 -17 18 -23 19 -32
4z"/>
<path d="M4751 903 c0 -25 1 -26 9 -8 12 27 12 35 0 35 -5 0 -10 -12 -9 -27z"/>
<path d="M4901 891 c-10 -7 -8 -10 8 -16 27 -8 36 -2 18 13 -7 6 -18 7 -26 3z"/>
<path d="M5000 860 c0 -20 -5 -30 -15 -30 -8 0 -15 -5 -15 -10 0 -17 31 -24
40 -10 5 8 31 14 65 15 36 1 60 7 66 16 19 30 12 33 -73 29 -30 -1 -48 2 -48
9 0 6 -4 11 -10 11 -5 0 -10 -13 -10 -30z"/>
<path d="M5207 870 c-3 -11 -1 -23 4 -26 5 -3 9 6 9 20 0 31 -6 34 -13 6z"/>
<path d="M5216 798 c-10 -37 -9 -38 49 -37 31 1 58 -1 62 -5 10 -9 33 14 33
34 0 9 -6 17 -12 17 -7 0 -38 3 -69 7 -53 7 -57 6 -63 -16z"/>
<path d="M673 763 c-18 -7 -16 -23 2 -23 8 0 15 7 15 15 0 8 -1 15 -2 14 -2 0
-9 -3 -15 -6z"/>
<path d="M746 747 c3 -10 9 -15 12 -12 3 3 0 11 -7 18 -10 9 -11 8 -5 -6z"/>
<path d="M5135 750 c-3 -6 1 -7 9 -4 18 7 21 14 7 14 -6 0 -13 -4 -16 -10z"/>
<path d="M666 701 c-4 -7 -5 -15 -2 -18 9 -9 19 4 14 18 -4 11 -6 11 -12 0z"/>
<path d="M695 700 c3 -5 8 -10 11 -10 2 0 4 5 4 10 0 6 -5 10 -11 10 -5 0 -7
-4 -4 -10z"/>
<path d="M5075 659 c-11 -16 -2 -17 25 -2 24 12 24 13 3 13 -12 0 -25 -5 -28
-11z"/>
<path d="M5063 603 c-15 -5 -17 -23 -4 -23 5 0 11 7 15 15 3 8 4 15 3 14 -1 0
-8 -3 -14 -6z"/>
<path d="M5270 556 c0 -4 7 -14 15 -22 8 -9 15 -11 15 -6 0 5 -7 15 -15 22 -8
7 -15 9 -15 6z"/>
<path d="M4945 460 c-3 -5 3 -10 15 -10 12 0 18 5 15 10 -3 6 -10 10 -15 10
-5 0 -12 -4 -15 -10z"/>
<path d="M4940 425 c0 -8 4 -15 10 -15 5 0 7 7 4 15 -4 8 -8 15 -10 15 -2 0
-4 -7 -4 -15z"/>
<path d="M5330 413 c0 -10 4 -14 8 -8 4 6 11 13 16 18 5 4 2 7 -7 7 -10 0 -17
-8 -17 -17z"/>
<path d="M4956 165 c-9 -25 -9 -25 29 -25 19 0 35 5 35 11 0 6 -9 9 -20 6 -12
-3 -23 1 -29 10 -7 13 -9 13 -15 -2z"/>
<path d="M5226 161 c-4 -7 -5 -15 -2 -18 9 -9 19 4 14 18 -4 11 -6 11 -12 0z"/>
<path d="M5250 120 c0 -5 5 -10 10 -10 6 0 10 5 10 10 0 6 -4 10 -10 10 -5 0
-10 -4 -10 -10z"/>
<path d="M5174 65 c-11 -27 14 -42 71 -44 46 -1 55 1 55 16 0 15 1 15 13 -2
16 -21 37 -12 37 17 0 14 -5 18 -15 14 -8 -3 -26 -1 -39 4 -15 5 -27 5 -35 -3
-6 -6 -11 -7 -11 -2 0 4 -9 0 -19 -9 -23 -21 -49 -12 -30 10 9 11 8 14 -5 14
-9 0 -19 -7 -22 -15z"/>
<path d="M4844 54 c-4 -10 -9 -22 -11 -26 -2 -5 0 -8 5 -8 10 0 24 41 17 48
-3 3 -8 -4 -11 -14z"/>
</g>
</svg>
